<svg width="24" height="24" viewBox="0 0 24 24" fill="none" xmlns="http://www.w3.org/2000/svg">
<path d="M2 7.67618L12 13.3553L22 7.67618C21.963 6.95237 21.6837 6.27202 21.2195 5.77448C20.7552 5.27694 20.1411 4.99987 19.5028 5H4.49719C3.85893 4.99987 3.24478 5.27694 2.78051 5.77448C2.31625 6.27202 2.03702 6.95237 2 7.67618Z" fill="black"/>
<path d="M22 9.11792L12 14.6254L2 9.11792V17.2167C2 17.947 2.26339 18.6474 2.73223 19.1639C3.20107 19.6803 3.83696 19.9704 4.5 19.9704H19.5C20.163 19.9704 20.7989 19.6803 21.2678 19.1639C21.7366 18.6474 22 17.947 22 17.2167V9.11792Z" fill="black"/>
</svg>
